<svg xmlns="http://www.w3.org/2000/svg"
 xmlns:xlink="http://www.w3.org/1999/xlink"
 width="942px" height="645px"  viewBox="0 0 942 645">
<path fill-rule="evenodd"  fill="#6055c4"
 d="M406.8189,43.771088 C513.5052,2.109085 614.1865,1.9806976 698.3618,33.2547 C782.7544,64.27496 850.6406,126.69763 896.7521,204.2739 C940.999,282.6211 940.9523,366.77472 904.8154,434.85004 C868.178,503.94025 807.199,556.0289 724.1028,593.2039 C680.0947,611.9222 633.8369,624.74554 575.03064,632.6168 C516.9996,640.3734 446.41992,643.178 371.64136,639.17664 C223.24335,631.4799 56.926514,595.3457 21.852722,513.84064 C1.9765625,473.36932 14.453064,426.97607 39.164978,380.28864 C64.28223,333.53296 101.63489,286.48303 140.85315,243.12354 C180.47687,199.69617 221.96619,159.95944 264.68018,126.259705 C307.79956,92.4917 352.1435,64.760925 406.8189,43.771088 C406.8189,43.771088 406.8189,43.771088 406.8189,43.771088 Z"/>
</svg>