<svg xmlns="http://www.w3.org/2000/svg"
 xmlns:xlink="http://www.w3.org/1999/xlink"
 width="484px" height="400px"  viewBox="0 0 484 400">
<path fill-rule="evenodd"  fill="#6055c4"
 d="M208.92046,27.252884 C263.4825,1.4597931 314.9735,1.3803406 358.02292,20.74231 C401.1834,39.947067 435.90216,78.59303 459.4848,126.62088 C482.1137,175.12598 482.08984,227.22583 463.60855,269.37155 C444.87122,312.14566 413.68503,344.39392 371.1875,367.40924 C348.6807,378.99774 325.0233,386.9367 294.9482,391.80988 C265.26965,396.61212 229.1734,398.34845 190.92975,395.87122 C115.03525,391.10614 29.976597,368.73523 12.038956,318.275 C1.8737793,293.21906 8.254585,264.49683 20.892887,235.5924 C33.7385,206.64572 52.841587,177.51685 72.89879,150.67294 C93.16336,123.78677 114.38206,99.18573 136.22708,78.32202 C158.27942,57.41623 180.95804,40.247757 208.92046,27.252884 C208.92046,27.252884 208.92046,27.252884 208.92046,27.252884 Z"/>
</svg>