<svg xmlns="http://www.w3.org/2000/svg" width="484" height="400"><path fill-rule="evenodd" fill="#6055c4" d="M208.92 27.253C263.483 1.46 314.974 1.38 358.023 20.743c43.16 19.204 77.88 57.85 101.462 105.878 22.629 48.505 22.605 100.605 4.124 142.75-18.738 42.775-49.924 75.023-92.421 98.038-22.507 11.589-46.165 19.528-76.24 24.4-29.678 4.803-65.775 6.54-104.018 4.062-75.895-4.765-160.953-27.136-178.891-77.596-10.165-25.056-3.784-53.778 8.854-82.683 12.846-28.946 31.949-58.075 52.006-84.92 20.264-26.885 41.483-51.486 63.328-72.35 22.052-20.906 44.731-38.074 72.693-51.07z"/></svg>